<svg xmlns="http://www.w3.org/2000/svg" xmlns:xlink="http://www.w3.org/1999/xlink" version="1.1" id="Your_Icon" x="0px" y="0px" width="100px" height="100px" viewBox="0 0 100 100" enable-background="new 0 0 100 100" xml:space="preserve">
<path fill="#000000" d="M81.485,91.896l-12.784-4.252L22.275,41.201c-0.641-0.642-0.641-1.682,0.001-2.323  c0.641-0.642,1.681-0.641,2.322,0l45.877,45.892l5.814,1.933l-1.939-5.805L28.904,35.423c-0.642-0.642-0.642-1.681,0.001-2.323  c0.642-0.641,1.682-0.642,2.323,0l45.993,46.023L81.485,91.896z"/>
<path fill="#000000" d="M13.451,31.729c-0.42,0-0.84-0.16-1.161-0.48l-3.101-3.096c-0.309-0.308-0.482-0.725-0.482-1.161  c-0.001-0.436,0.173-0.854,0.48-1.162l6.192-6.199c0.309-0.308,0.726-0.481,1.161-0.481c0.001,0,0.001,0,0.001,0  c0.436,0,0.854,0.173,1.162,0.48l3.098,3.097c0.643,0.642,0.643,1.681,0.001,2.323c-0.641,0.642-1.681,0.642-2.323,0.001  l-1.936-1.936l-3.871,3.874l1.938,1.935c0.642,0.641,0.643,1.682,0.002,2.323C14.292,31.569,13.872,31.729,13.451,31.729z"/>
<path fill="#000000" d="M19.939,38.568c-0.438,0-0.877-0.175-1.2-0.521c-0.62-0.662-0.586-1.702,0.078-2.322l6.61-6.185  c0.663-0.62,1.703-0.586,2.321,0.078c0.621,0.662,0.586,1.702-0.076,2.321l-6.611,6.185C20.745,38.422,20.341,38.568,19.939,38.568z  "/>
<path fill="#000000" d="M16.541,35.169c-0.439,0-0.877-0.176-1.2-0.521c-0.619-0.661-0.585-1.702,0.077-2.321l6.611-6.185  c0.663-0.621,1.703-0.584,2.322,0.077c0.619,0.663,0.585,1.703-0.078,2.322l-6.61,6.185C17.345,35.023,16.943,35.169,16.541,35.169z  "/>
<path fill="#000000" d="M43.43,66.24L22.12,87.55L11.78,77.2l21.37-21.37c0.67-0.67,1.75-0.67,2.41,0c0.67,0.66,0.67,1.74,0,2.41  l-2.71,2.72l1.56,1.56c0.66,0.66,0.66,1.74,0,2.41c-0.34,0.33-0.77,0.5-1.21,0.5c-0.44,0-0.87-0.17-1.21-0.5l-1.56-1.56l-2.81,2.81  l1.56,1.561c0.67,0.67,0.67,1.75,0,2.42c-0.33,0.33-0.77,0.49-1.21,0.49c-0.43,0-0.87-0.16-1.2-0.5l-1.56-1.561l-3.17,3.17  l1.56,1.561c0.66,0.67,0.66,1.75,0,2.42c-0.34,0.33-0.77,0.5-1.21,0.5s-0.87-0.17-1.2-0.5l-1.56-1.561L16.6,77.2l5.52,5.52  l18.89-18.89c0.67-0.67,1.75-0.67,2.42,0C44.09,64.5,44.09,65.58,43.43,66.24z"/>
<path fill="#000000" d="M54.933,54.029c-0.437,0-0.873-0.167-1.206-0.5c-0.667-0.666-0.667-1.746,0-2.412l19.15-19.151l-5.518-5.52  L48.596,45.21c-0.667,0.666-1.746,0.666-2.413,0c-0.666-0.667-0.666-1.747,0-2.413l21.177-21.177l10.342,10.347L56.139,53.529  C55.806,53.862,55.369,54.029,54.933,54.029z"/>
<path fill="#000000" d="M54.366,32.521L31.934,10.089l1.206-1.207c1.602-1.602,3.727-2.484,5.983-2.484  c2.251,0,4.371,0.879,5.967,2.475l9.997,9.998c0.474,0.437,2.834,0.534,4.102,0.586l0.129,0.005c1.465-0.388,3.033-0.367,4.49,0.062  l2.757,0.813L54.366,32.521z M36.965,10.295l17.403,17.402l4.83-4.824l-0.149-0.006c-2.457-0.101-4.998-0.206-6.374-1.582  l-9.998-9.998c-0.952-0.952-2.214-1.476-3.554-1.476C38.365,9.811,37.632,9.978,36.965,10.295z"/>
<path fill="#000000" d="M89.316,67.463l-22.52-22.51L79.01,32.749l0.831,2.713c0.46,1.505,0.492,3.096,0.094,4.622l0.004,0.088  c0.053,1.282,0.151,3.667,0.593,4.153l9.991,9.981c3.29,3.303,3.289,8.663,0,11.951L89.316,67.463z M71.623,44.953l17.482,17.475  c0.874-1.866,0.541-4.166-0.998-5.711l-9.995-9.985c-1.375-1.387-1.48-3.945-1.583-6.418l-0.011-0.25L71.623,44.953z"/>
<path fill="#000000" d="M65.893,32.848c-0.609-0.609-0.609-1.598,0.006-2.213c0.609-0.609,1.599-0.609,2.208,0  c0.608,0.609,0.608,1.598,0,2.208C67.49,33.458,66.502,33.458,65.893,32.848z"/>
</svg>