<svg xmlns="http://www.w3.org/2000/svg" xmlns:xlink="http://www.w3.org/1999/xlink" version="1.1" id="Layer_1" x="0px" y="0px" width="100px" height="100px" viewBox="0 0 100 100" enable-background="new 0 0 100 100" xml:space="preserve">
<g id="Captions">
</g>
<g id="Your_Icon">
	<g>
		<path d="M73.267,38.971L62.879,34.41c-0.269-0.118-0.472-0.348-0.556-0.628L57.647,18.19c-0.104-0.348-0.012-0.725,0.242-0.985    c0.253-0.26,0.629-0.361,0.979-0.267l15.704,4.284c0.283,0.077,0.519,0.274,0.643,0.54l4.819,10.271l-1.811,0.85L73.6,23.03    l-13.52-3.688l4.025,13.422l9.966,4.376L73.267,38.971z"/>
		<rect x="57.003" y="21.205" transform="matrix(-0.7229 -0.691 0.691 -0.7229 93.2197 81.2969)" width="11.818" height="1.5"/>
		<path d="M74.529,46.161c-0.265,0-0.519-0.105-0.706-0.292l-4.175-4.157c-0.391-0.39-0.393-1.023-0.003-1.414l11.57-11.62    c0.188-0.188,0.441-0.294,0.707-0.294c0.263-0.016,0.52,0.104,0.708,0.292l4.175,4.157c0.391,0.39,0.393,1.023,0.003,1.414    l-11.57,11.62c-0.188,0.188-0.441,0.294-0.707,0.294C74.53,46.161,74.53,46.161,74.529,46.161z M71.768,41.001l2.758,2.746    l10.159-10.203l-2.758-2.746L71.768,41.001z"/>
		<path d="M70.109,81.542c0.003-0.005,0.009-0.008,0.015-0.014l3.715-3.67c0.166-0.164,0.398-0.242,0.629-0.211    c0.228,0.028,0.42,0.164,0.518,0.362l3.281,6.733c0.125,0.264,0.065,0.58-0.151,0.797c-0.22,0.212-0.545,0.28-0.82,0.162    l-6.86-3.002c-0.128-0.025-0.246-0.085-0.343-0.178C69.817,82.261,69.824,81.822,70.109,81.542"/>
		<path d="M63.572,74.295c-0.224,0-0.448-0.085-0.619-0.256L20.038,31.123c-0.342-0.342-0.342-0.896,0-1.237s0.896-0.342,1.237,0    l42.917,42.916c0.341,0.342,0.341,0.896,0,1.238C64.02,74.21,63.796,74.295,63.572,74.295z"/>
		<path d="M40.588,25.217l-0.825-5.421c-0.044-0.29,0.041-0.584,0.233-0.806c0.191-0.221,0.455-0.364,0.764-0.345l5.344,0.048    l-0.799-4.653l1.971-0.339l1.002,5.833c0.05,0.292-0.032,0.592-0.224,0.817c-0.191,0.226-0.466,0.338-0.771,0.352l-5.367-0.048    l0.648,4.26L40.588,25.217z"/>
		<rect x="48.643" y="18.496" transform="matrix(-0.7071 -0.7071 0.7071 -0.7071 67.0838 77.7428)" width="2" height="12.964"/>
		<path d="M77.535,86.299c-0.131,0-0.262-0.022-0.389-0.069L61.19,80.364c-0.152-0.056-0.292-0.145-0.407-0.26L13.58,32.899    c-0.118-0.117-0.208-0.259-0.264-0.416c-0.058-0.161-1.388-3.975,1.034-6.395l3.651-3.651c0.949-0.949,2.273-1.451,3.828-1.451    c1.363,0,2.448,0.375,2.567,0.417c0.156,0.056,0.298,0.146,0.416,0.264l47.204,47.204c0.101,0.101,0.181,0.22,0.237,0.351    l6.574,15.248c0.183,0.423,0.088,0.915-0.237,1.241l-0.259,0.259C78.116,86.184,77.828,86.299,77.535,86.299z M62.199,78.337    l13.706,5.039l-5.634-13.065L23.419,23.457c-0.309-0.084-0.911-0.22-1.59-0.22c-0.959,0-1.711,0.267-2.237,0.792l-3.651,3.651    c-1.168,1.167-0.752,3.165-0.571,3.828L62.199,78.337z"/>
		<path d="M70.247,29.874h-3.25c-0.414,0-0.75-0.336-0.75-0.75v-3.25c0-0.414,0.336-0.75,0.75-0.75h3.25    c0.414,0,0.75,0.336,0.75,0.75v3.25C70.997,29.538,70.661,29.874,70.247,29.874z M67.747,28.374h1.75v-1.75h-1.75V28.374z"/>
	</g>
</g>
</svg>