<svg xmlns="http://www.w3.org/2000/svg" xmlns:xlink="http://www.w3.org/1999/xlink" version="1.1" id="Layer_1" x="0px" y="0px" width="100px" height="100px" viewBox="0 0 100 100" enable-background="new 0 0 100 100" xml:space="preserve">
<path id="Content_x5F_2" d="M51.983,63.98L36.321,47.032L22.855,59.888L21,57.945l15.441-14.742l15.661,16.948l20.756-19.815  l1.855,1.944L51.983,63.98z M79,36.357l-8.927,0.983l7.448,7.959L79,36.357z"/>
<path id="Frame" d="M87.811,26.272V72.11H12.189V26.272H87.811 M90,24.083H10V74.3h80V24.083L90,24.083z M51.081,82.375v-6.089  h-2.162v6.089l-12.994,6.067l0.914,1.959l13.131-6.132h0.06l13.131,6.132l0.914-1.959L51.081,82.375z M41.748,20.667h20.167v2  H41.748V20.667z"/>
</svg>