<svg xmlns="http://www.w3.org/2000/svg" xmlns:xlink="http://www.w3.org/1999/xlink" version="1.1" x="0px" y="0px" width="100px" height="100px" viewBox="-346 256 100 100" enable-background="new -346 256 100 100" xml:space="preserve">
<g id="Layer_3">
</g>
<g id="Layer_1">
	<rect x="-266.8" y="343.939" width="13.344" height="3.164"/>
	<path d="M-301.969,334.988l39.232-5.01l-1.907-1.213c-5.209-3.311-11.148-5.061-17.18-5.061l-29.771,2.184   c-3.002-2.672-6.22-5.275-9.429-6.344c-0.159-0.053-0.405-0.131-0.711-0.221c-4.179-1.266-4.386-1.867-4.386-1.975   c0.017-0.115,0.241-0.539,0.393-0.822c0.518-0.969,1.229-2.291,1.229-4.018c0-4.755-5.125-9.25-10.54-9.25   c-4.657,0-8.168,3.105-8.168,7.213c0,3.449,2.282,6.42,6.261,8.158c1.378,0.607,2.865,0.939,4.305,1.262   c0.567,0.125,1.045,0.234,1.515,0.352c4.247,0.943,6.743,1.85,10.312,4.746c1.52,1.248,2.611,2.455,3.32,3.68   c-2.251,2.018-6.144,4.105-9.672,4.105c-1.546,0-3.217-0.383-4.832-0.756c-1.717-0.395-3.489-0.801-5.247-0.801   c-5.161,0-8.755,3.031-8.755,7.371c0,4.803,4.943,9.174,10.372,9.174c5.205,0,8.836-3.129,8.836-7.609   c0-1.043-0.102-1.51-0.374-2.475c-0.08-0.346-0.123-0.613-0.123-0.805c0-0.223,0-0.359,0.883-0.359h2.451l11.651-0.83l7.922,8.254   h-9.399v3.164l24.455-0.045v-3.369h-4.481L-301.969,334.988z M-332.162,315.752c-2.665,0-6.906-2.199-6.906-4.807   c0-2.508,1.467-3.945,4.029-3.945c2.621,0,6.134,2.492,6.134,5.041C-328.904,313.885-330.026,315.752-332.162,315.752z    M-335.628,343.945c-2.898,0-6.15-2.258-6.15-5.277c0-2.273,2.265-3.635,4.452-3.635c3.094,0,6.232,1.705,6.232,4.961   C-331.095,342.467-333.402,343.945-335.628,343.945z"/>
	<rect x="-284.576" y="343.939" width="13.344" height="3.164"/>
	<polygon points="-311.612,259.319 -313.354,265.579 -310.146,266.471 -308.197,259.46 -304.369,260.524 -307.62,272.217    -325.053,267.369 -321.902,256.039 -318.075,257.104 -319.923,263.752 -317.129,264.529 -315.389,258.27  "/>
	<polygon points="-261.216,315.523 -250.908,310.15 -249.069,313.674 -255.07,316.801 -253.531,319.754 -247.89,316.811    -246.078,320.287 -251.72,323.229 -248.542,329.322 -252.854,331.568  "/>
	<path d="M-273.926,303.437l-3.161-5.617l-18.349,4.287l2.462,4.377l4.15-1.167l2.29,4.071l-3.084,3.061l2.568,4.561   L-273.926,303.437z M-285.396,304.129l3.214-0.916c1.021-0.265,2.438-0.755,3.505-1.047l0.027,0.047   c-0.805,0.76-1.919,1.79-2.678,2.521l-2.423,2.318L-285.396,304.129z"/>
</g>
</svg>