<?xml version="1.0" encoding="utf-8"?>
<!-- Generator: Adobe Illustrator 15.1.0, SVG Export Plug-In . SVG Version: 6.00 Build 0)  -->
<!DOCTYPE svg PUBLIC "-//W3C//DTD SVG 1.1//EN" "http://www.w3.org/Graphics/SVG/1.1/DTD/svg11.dtd">
<svg version="1.1" id="Layer_1" xmlns="http://www.w3.org/2000/svg" xmlns:xlink="http://www.w3.org/1999/xlink" x="0px" y="0px"
	 width="100px" height="65.576px" viewBox="-0.12 14.566 100 65.576" enable-background="new -0.12 14.566 100 65.576"
	 xml:space="preserve">
<path d="M49.893,33.585c0,0-1.888,1.195-4.663,0.706c-2.325-0.41-4.26-2.9-4.26-2.9c-0.047-0.058-0.075-0.131-0.075-0.21
	c0-0.18,0.147-0.329,0.328-0.329c0.053,0,0.104,0.015,0.149,0.037c0,0,1.443,0.899,3.297,0.934c2.192,0.04,3.59-1.056,3.59-1.056
	c0.262-0.177,0.542-0.241,0.853-0.241c0.899,0,1.629,0.731,1.629,1.63C50.74,32.772,50.397,33.308,49.893,33.585z"/>
<path d="M60.409,23.635h-4.294l1.053-8.335c0.025-0.185-0.032-0.372-0.154-0.513c-0.125-0.14-0.303-0.22-0.49-0.22h-11.55
	c-0.188,0-0.365,0.081-0.488,0.22c-0.124,0.14-0.181,0.327-0.158,0.513l1.052,8.335h-4.307c-0.27,0-0.489,0.218-0.489,0.488v0.109
	c0,0.227,0.154,0.425,0.376,0.477l4.147,0.991c-1.076,1.281-1.725,2.931-1.725,4.731c0,0.19,0.009,0.381,0.025,0.568
	c0.385,0.093,0.815,0.164,1.273,0.172c0.036,0,0.071,0.001,0.105,0.001c0.27,0,0.523-0.021,0.762-0.053
	c-0.029-0.225-0.046-0.454-0.046-0.687c0-2.894,2.354-5.247,5.247-5.247c2.892,0,5.246,2.354,5.246,5.247
	c0,0.233-0.018,0.463-0.047,0.689c0.24,0.031,0.492,0.052,0.763,0.052c0.034,0,0.07-0.001,0.107-0.001
	c0.457-0.008,0.888-0.079,1.274-0.172c0.013-0.187,0.023-0.377,0.023-0.568c0-1.801-0.652-3.452-1.729-4.733l4.139-0.989
	c0.221-0.052,0.374-0.249,0.374-0.477v-0.109C60.899,23.853,60.68,23.635,60.409,23.635z M48.332,16.046l0.553,7.255
	c-0.304,0.08-0.6,0.181-0.888,0.296h-0.028l-0.819-7.552L48.332,16.046L48.332,16.046z"/>
<path d="M67.906,53.667c0.37-1.068,0.398-1.836,0.143-2.838l-3.592-10.296c-0.349-1.158-0.944-1.676-2.067-1.851l-7.618-1.068
	l-4.025,9.199L47.2,38.319c-0.999,0.614-1.887,1.069-2.07,1.162c-0.008,0.004-0.018,0.009-0.027,0.013
	c-0.129,0.06-0.27,0.091-0.412,0.091c-0.109,0-0.217-0.018-0.319-0.055c-0.003,0-0.003,0-0.004-0.001
	c-0.106,0.254-0.297,0.458-0.549,0.574c-0.146,0.067-0.302,0.102-0.463,0.102c-0.107,0-0.213-0.016-0.314-0.046
	c-0.106,0.247-0.296,0.445-0.543,0.56c-0.145,0.069-0.302,0.103-0.463,0.103l0,0c-0.424,0-0.815-0.249-0.995-0.633l-0.742-1.592
	l-1.359,0.25c-1.121,0.175-1.72,0.69-2.067,1.849l-3.591,10.134c-0.256,1.002-0.227,1.692,0.142,2.837l5.023,12.384
	c0.386,0.898,0.386,1.365,0.171,2.308c-0.236,1.043-0.701,3.261-0.701,3.261c-0.021,0.137,0.009,0.225,0.071,0.274
	c0.066,0.057,0.212,0.042,0.411-0.017c0.006-0.002,0.261-0.073,0.691-0.195v3.259l-5.065,2.427
	c-0.169,0.079-0.278,0.252-0.278,0.441v0.651c0,0.27,0.221,0.49,0.491,0.49h13.475c0.241,0,0.448-0.18,0.484-0.419l0.461-3.1
	c0.002-0.015,0.001-0.03,0.001-0.047l1.053-6.725c0.605-0.171,0.989-0.281,1.039-0.295c0.049,0.015,0.439,0.124,1.056,0.3
	l1.051,6.72c0,0.017,0,0.032,0.005,0.047l0.46,3.1c0.036,0.239,0.24,0.419,0.484,0.419h13.471c0.274,0,0.49-0.221,0.49-0.49v-0.651
	c0-0.189-0.105-0.362-0.277-0.441l-5.065-2.427v-3.256c0.42,0.12,0.667,0.19,0.675,0.192c0.196,0.059,0.344,0.072,0.411,0.017
	c0.063-0.05,0.09-0.138,0.069-0.274c0,0-0.464-2.218-0.7-3.261c-0.215-0.942-0.215-1.409,0.171-2.308L67.906,53.667z M38.366,60.806
	l6.756-2.631l0.757,1.922l-6.757,2.632L38.366,60.806z M42.754,74.869H41.14v-3.772c0.5-0.143,1.046-0.298,1.614-0.458V74.869z
	 M46.734,74.869h-2.022v-4.786c1-0.287,1.994-0.566,2.877-0.82L46.734,74.869z M56.893,74.869h-2.023l-0.849-5.574
	c0.89,0.254,1.88,0.534,2.871,0.816L56.893,74.869L56.893,74.869z M60.468,74.869h-1.616v-4.201
	c0.569,0.161,1.114,0.319,1.616,0.459V74.869z M62.359,62.739l-6.736-2.676l0.766-1.919l6.742,2.678L62.359,62.739z"/>
<path d="M52.828,38.804c-0.615,0.12-1.352,0.221-2.074,0.221c-0.703,0-1.374-0.08-1.917-0.175l1.939,4.642L52.828,38.804z"/>
<g>
	<path d="M56.378,34.933c-0.478,0.086-0.965,0.128-1.445,0.128c-0.543,0-1.037-0.056-1.479-0.138
		c-0.792,0.478-1.716,0.754-2.706,0.754c-0.163,0-0.325-0.011-0.484-0.026c-0.05,0.159-0.129,0.309-0.239,0.443
		c-0.016,0.025-0.038,0.056-0.064,0.087c-0.353,0.418-0.873,0.856-1.442,1.269c0.702,0.224,1.452,0.347,2.229,0.347
		c2.389,0,4.515-1.144,5.859-2.908C56.532,34.904,56.457,34.92,56.378,34.933z"/>
</g>
<g>
	<g>
		<path d="M30.088,54.072c0.513,1.663,0.815,3.362,0.946,5.101c-3.679-2.281-6.724-3.672-9.985-3.654
			c-1.885,0.005-2.945,0.378-3.195,1.059c-0.205,0.577,0.308,0.896,1.562,0.966c0.337,0.021,0.832,0.085,1.496,0.201
			c0.895,0.151,1.521,0.245,1.858,0.28c0.681,0.064,1.365,0.129,2.054,0.196c2.4,0.24,4.399,0.869,6.055,1.795
			c1.649,0.931,2.593,1.961,2.572,3.228c-0.022,1.428-0.958,2.673-2.781,3.727c-1.824,1.047-4.243,1.715-7.141,1.774
			c-0.354,0.004-0.709,0.007-1.063,0.004c-0.222,0.884-0.452,1.767-0.685,2.655c-1.381,0.004-2.761-0.032-4.142-0.109
			c0.29-0.987,0.583-1.979,0.875-2.969c-2.434-0.502-4.343-1.165-5.718-1.88c-1.428,0.39-2.88,0.73-4.344,1.003
			c1.001-2.156,2.146-4.407,3.347-6.709c0.182,1.549,1.336,2.845,3.437,3.853c2.096,1.002,4.902,1.58,8.255,1.525
			c2.88-0.048,4.38-0.494,4.478-1.171c0.085-0.601-0.677-0.929-2.253-1.033c-0.246-0.014-0.817-0.055-1.702-0.127
			c-0.654-0.055-1.306-0.112-1.956-0.175c-4.255-0.417-7.074-1.188-8.452-2.078c-1.39-0.901-1.567-2.098-0.691-3.694
			c0.726-1.325,1.974-2.442,3.514-3.345c1.55-0.898,3.106-1.402,4.904-1.398c0.161,0,0.443,0.012,0.847,0.038
			c0.096-0.694,0.175-1.384,0.235-2.074c0.771,0.021,1.542,0.065,2.312,0.131c0.063,0.829,0.09,1.666,0.087,2.507
			c1.095,0.39,1.991,0.779,2.646,1.15C28.394,54.556,29.271,54.294,30.088,54.072z"/>
	</g>
</g>
<g>
	<g>
		<path d="M83.735,54.44c0.979,1.861,2.039,3.715,3.123,5.542c-4.997-2.404-8.462-3.745-11.843-3.638
			c-1.942,0.054-2.924,0.435-2.904,1.1c0.02,0.566,0.7,0.876,2.025,0.936c0.359,0.02,0.898,0.079,1.636,0.191
			c0.988,0.146,1.676,0.239,2.037,0.267c0.729,0.061,1.464,0.123,2.201,0.188c2.578,0.229,4.915,0.873,7.159,1.839
			c2.236,0.964,3.902,2.03,4.764,3.27c0.976,1.396,0.866,2.532-0.369,3.539c-1.239,0.997-3.401,1.702-6.388,1.88
			c-0.367,0.019-0.734,0.033-1.103,0.047c0.387,0.863,0.771,1.723,1.147,2.575c-1.421,0.109-2.845,0.18-4.268,0.216
			c-0.409-1.016-0.815-2.033-1.215-3.049c-2.801-0.403-5.135-1.026-6.986-1.734c-1.113,0.472-2.245,0.923-3.386,1.338
			c-0.735-2.531-1.25-4.981-1.413-7.337c1.124,1.582,3.158,2.954,5.925,3.97c2.773,1.016,5.989,1.533,9.443,1.425
			c2.97-0.104,4.273-0.546,3.913-1.202c-0.314-0.583-1.337-0.906-3.055-1.002c-0.27-0.018-0.888-0.055-1.856-0.126
			c-0.714-0.05-1.425-0.104-2.134-0.161c-4.645-0.403-7.97-1.184-9.917-2.093c-1.954-0.924-2.886-2.153-2.751-3.702
			c0.115-1.286,1.02-2.333,2.363-3.225c1.357-0.885,2.883-1.44,4.731-1.54c0.166-0.009,0.459-0.014,0.879-0.008
			c-0.054-0.691-0.081-1.379-0.077-2.062c0.792-0.057,1.588-0.093,2.38-0.108c0.138,0.859,0.315,1.723,0.524,2.593
			c1.212,0.348,2.231,0.717,3.009,1.082C82.182,55.096,82.984,54.758,83.735,54.44z"/>
	</g>
</g>
<path d="M32.442,78.458v-0.651c0-0.678,0.393-1.31,1.001-1.609c-2.547-0.241-6.143-0.483-10.28-0.483
	c-2.761,0-5.449,0.108-7.99,0.328c-1.53,0.133-2.984,0.32-4.39,0.5c-1.932,0.247-3.755,0.482-5.194,0.482
	c-2.248,0-2.796-0.563-3.021-1.056c-0.585-1.275-0.054-2.13,1.616-4.246c0.163-0.208,0.331-0.422,0.499-0.639
	c1.276-1.646,1.911-4.12,2.713-7.252c0.85-3.312,1.811-7.063,3.792-10.826c3.811-7.244,10.075-9.458,11.076-9.773
	c2.941,0.049,4.735,1.363,5.521,2.111l-0.307,0.634c-1.712-0.542-3.048-0.664-3.894-0.664c-0.605,0-0.944,0.064-0.958,0.066
	c-0.147,0.027-0.256,0.152-0.265,0.299c-0.01,0.15,0.083,0.286,0.227,0.331c2.257,0.719,4.093,1.748,4.889,2.229l0.094,0.059
	c0.028,0.017,2.352,1.473,4.248,3.37c0.025-0.372,0.091-0.749,0.196-1.164l0.014-0.058l0.021-0.057l0.493-1.396
	c-1.034-0.916-2.056-1.67-2.762-2.162l0.793-1.634c0.769-0.318,1.774-1.219,1.651-3.087c-0.025-0.373-0.1-0.706-0.213-1.004
	c0.783-0.614,2.02-1.271,2.87-1.635l1.47-0.625c0.002-0.004,0.005-0.006,0.008-0.011l-2.79-3.052l0.609-0.553
	c0.095-0.085,0.104-0.227,0.029-0.326c-0.446-1.847-1.407-3.31-2.862-4.343c-1.718-1.22-4.402-1.363-4.925-1.379
	c-0.028-0.01-0.056-0.017-0.086-0.017h-0.531c-0.125,0-0.23,0.095-0.242,0.219c-0.008,0.076-0.086,0.831-0.147,1.834
	c-0.763-0.149-1.772-0.427-2.391-0.617l-1.181-0.364l-0.27,1.204c-0.522,2.331-0.146,5.034-0.037,5.723
	c-0.888,0.526-1.287,1.457-1.428,1.873c-0.302,0.896-0.166,1.675,0.191,2.307c-2.549,1.047-7.791,3.893-11.278,10.521
	c-2.114,4.02-3.158,8.088-3.996,11.357c-0.704,2.746-1.312,5.115-2.278,6.361c-0.165,0.212-0.327,0.42-0.487,0.622
	c-1.636,2.073-3.18,4.033-1.917,6.783c1.021,2.223,3.481,2.479,5.244,2.479c1.595,0,3.495-0.242,5.504-0.502
	c1.382-0.179,2.812-0.359,4.291-0.488c2.471-0.213,5.088-0.323,7.78-0.323c3.618,0,6.851,0.198,9.285,0.411
	C32.445,78.53,32.442,78.496,32.442,78.458z M23.626,33.146c0.541,0.143,1.167,0.29,1.717,0.379
	c0.004,0.954,0.063,1.872,0.226,2.512c0.027,0.108,0.125,0.183,0.236,0.183c0.004,0,0.01,0,0.015,0
	c0.116-0.005,0.211-0.094,0.228-0.209c0.004-0.026,0.378-2.523,1.721-4.389c0.784,0.139,1.67,0.386,2.256,0.803
	c0.718,0.508,1.247,1.16,1.61,1.967l-1.248,3.664c-0.035,0.107,0.003,0.223,0.098,0.283c0.042,0.027,0.089,0.042,0.134,0.042
	c0.06,0,0.118-0.022,0.165-0.064l1.099-1l0.681,0.746c-0.639,0.343-1.385,0.792-2.017,1.298c-0.576-0.405-1.264-0.767-2.014-1.158
	l-0.403-0.212c-1.429-0.753-3.015-1.194-4.347-1.255C23.704,36.226,23.501,34.691,23.626,33.146z M22.119,39.719
	c0.103-0.307,0.333-0.679,0.597-0.774c0.639-0.231,2.485-0.096,4.425,0.926l0.407,0.213c1.895,0.992,2.51,1.377,2.565,2.171
	c0.05,0.772-0.243,0.949-0.35,0.987l-0.03,0.009c-0.005,0-0.286,0.059-0.695-0.057c-1.198-1-3.311-2.266-6.417-2.396
	C22.298,40.591,21.946,40.234,22.119,39.719z"/>
<path d="M94.801,58.872c-1.962-2.888-3.869-5.059-8.867-8.916c-0.797-0.617-1.669-1.236-2.514-1.833
	c-1.474-1.045-3.493-2.476-3.845-3.152c-0.458-0.875,0.146-2.09,0.315-2.398c0.132-0.05,0.25-0.109,0.348-0.177
	c0.685-0.509,1.444-1.66,0.786-3.504c-0.13-0.366-0.3-0.682-0.501-0.957c0.615-0.809,1.678-1.773,2.433-2.348l0.783-0.77
	l-2.983-2.908l0.535-0.806c0.071-0.11,0.042-0.254-0.062-0.336c-1.504-2.339-3.243-3.035-4.842-3.515
	c-2.128-0.639-9.047,1.469-9.162,1.498c-0.118,0.028-0.257,0.126-0.279,0.42c-0.058,0.836,0.069,1.114,0.069,1.114l0.067,0.654
	c0.451,2.427,1.327,4.691,1.631,5.353c0,0-0.871,1.239-0.781,2.514c0.051,0.784,0.223,1.416,0.563,1.916
	c-0.593,0.398-1.283,0.898-2.012,1.495l1.001,2.871c1.885-1.693,3.826-2.879,4.592-3.319c0.065-0.004,0.129-0.008,0.197-0.014
	c0,0,1.029-0.026,2.176,0.091c0.843,0.085,1.799,0.348,2.505,0.576c-0.322,0.993-0.506,2.375,0.195,3.72
	c0.667,1.279,2.55,2.611,4.724,4.153c0.819,0.582,1.669,1.184,2.418,1.764c4.719,3.645,6.422,5.57,8.256,8.264
	c2.473,3.642,5.255,11.675,4.478,14.062c-0.438,1.346-1.231,2-2.732,2.257c-0.259,0.044-0.524,0.094-0.803,0.146
	c-2.787,0.51-6.999,1.283-19.156-0.211c-0.301-0.048-2.347-0.348-5.997-0.376c0.454,0.331,0.736,0.87,0.736,1.446v0.653
	c0,0.211-0.039,0.416-0.108,0.608c3.268,0.054,5.01,0.328,5.036,0.33l0.059,0.009c5.475,0.675,9.414,0.899,12.357,0.896
	c3.833-0.005,5.987-0.399,7.655-0.707c0.268-0.05,0.523-0.097,0.772-0.138c2.444-0.417,4.053-1.77,4.786-4.014
	C100.881,71.446,97.161,62.35,94.801,58.872z M69.592,30.586c0,0,1.213-0.734,3.818-0.958c0.998-0.161,2.099-0.065,2.81,0.208
	c0.869,0.333,2.014,0.998,2.607,1.718l-0.696,3.201c-0.007,0.115,0.068,0.222,0.18,0.259c0.05,0.019,0.099,0.02,0.146,0.009
	c0.062-0.015,0.115-0.052,0.15-0.104l0.981-1.447l1.334,1.189c-0.547,0.503-1.315,1.147-1.805,1.812
	c-1.033-0.533-1.946-0.903-2.812-1.111l-0.465-0.113c-1.655-0.401-3.676-0.093-5.038,0.173c-0.226-0.496-0.93-2.271-1.078-3.752
	C69.649,31.12,69.592,30.586,69.592,30.586z M78.974,40.109l-0.028,0.016c-0.002,0.001-0.272,0.131-0.715,0.116
	c-2.296-0.508-4.094-0.971-7.152-0.815c-0.386-0.128-0.842-0.399-0.812-0.959c0.017-0.333,0.144-0.763,0.38-0.924
	c0.58-0.388,2.481-0.71,4.728-0.166l0.471,0.114c2.194,0.527,2.925,0.762,3.203,1.544C79.318,39.794,79.072,40.043,78.974,40.109z"
	/>
<g>
	<path d="M51.603,33.585c0,0,1.889,1.195,4.663,0.706c2.326-0.41,4.262-2.9,4.262-2.9c0.047-0.058,0.073-0.131,0.073-0.21
		c0-0.18-0.147-0.329-0.33-0.329c-0.052,0-0.101,0.015-0.146,0.037c0,0-1.443,0.899-3.298,0.934
		c-2.193,0.04-3.591-1.056-3.591-1.056c-0.264-0.177-0.539-0.241-0.853-0.241c-0.899,0-1.63,0.731-1.63,1.63
		C50.754,32.772,51.097,33.308,51.603,33.585z"/>
</g>
<g>
	<path d="M49.893,33.585c0,0-1.888,1.195-4.663,0.706c-2.325-0.41-4.26-2.9-4.26-2.9c-0.047-0.058-0.075-0.131-0.075-0.21
		c0-0.18,0.147-0.329,0.328-0.329c0.053,0,0.104,0.015,0.149,0.037c0,0,1.443,0.899,3.297,0.934c2.192,0.04,3.59-1.056,3.59-1.056
		c0.262-0.177,0.542-0.241,0.853-0.241c0.899,0,1.629,0.731,1.629,1.63C50.74,32.772,50.397,33.308,49.893,33.585z"/>
</g>
<path d="M48.954,34.61c-0.01,0-0.019-0.002-0.031-0.002c-1.808,0.002-5.23,1.46-5.375,1.523c-0.003,0.001-0.006,0.002-0.01,0.004
	c-0.077,0.037-0.136,0.102-0.167,0.179c-0.031,0.083-0.029,0.174,0.009,0.254l0.48,1.026c0.009,0.021,0.021,0.041,0.034,0.059
	c0.006,0.022,0.013,0.044,0.022,0.065l0.479,1.027c0.037,0.08,0.105,0.141,0.19,0.171c0.081,0.027,0.167,0.023,0.243-0.013
	c0.005-0.001,0.007-0.003,0.01-0.004c0.141-0.071,3.458-1.756,4.622-3.138c0.014-0.016,0.022-0.034,0.031-0.05
	c0.179-0.19,0.234-0.474,0.118-0.726C49.49,34.725,49.222,34.585,48.954,34.61z"/>
<path d="M42.263,36.762c-0.224,0.102-0.32,0.368-0.215,0.59l0.906,1.943c0.104,0.224,0.369,0.319,0.592,0.217
	c0.222-0.106,0.319-0.369,0.214-0.592l-0.906-1.945C42.75,36.753,42.484,36.656,42.263,36.762z"/>
<path d="M40.941,37.376c-0.223,0.105-0.32,0.37-0.214,0.593l0.907,1.943c0.103,0.222,0.369,0.319,0.591,0.214
	c0.223-0.103,0.319-0.368,0.214-0.591l-0.906-1.943C41.43,37.369,41.164,37.272,40.941,37.376z"/>
<g id="Layer_5">
</g>
<g id="Layer_3">
</g>
<g id="Layer_4">
</g>
</svg>
