<svg xmlns="http://www.w3.org/2000/svg" xmlns:xlink="http://www.w3.org/1999/xlink" version="1.1" id="Layer_1" x="0px" y="0px" width="100px" height="100px" viewBox="0 0 100 100" enable-background="new 0 0 100 100" xml:space="preserve">
<path fill="none" d="M49.107,88.682c-1.654,0-2.998,1.342-2.998,2.996c0,1.655,1.344,3,2.998,3c1.656,0,3.002-1.345,3.002-3  C52.109,90.023,50.764,88.682,49.107,88.682z"/>
<path fill="none" d="M27.27,85.609h43.676V11.888H27.27V85.609z M55.943,25.37c0-0.521,0.422-0.945,0.945-0.945h3.779  c0.521,0,0.943,0.423,0.943,0.945v22.614c0,0.521-0.422,0.944-0.943,0.944h-3.779c-0.523,0-0.945-0.423-0.945-0.944V25.37z   M46.273,31.37c0-0.521,0.424-0.945,0.945-0.945h3.779c0.521,0,0.945,0.423,0.945,0.945v16.614c0,0.521-0.424,0.944-0.945,0.944  h-3.779c-0.521,0-0.945-0.423-0.945-0.944V31.37z M36.605,37.37c0-0.521,0.422-0.945,0.945-0.945h3.779  c0.521,0,0.943,0.423,0.943,0.945v10.614c0,0.521-0.422,0.944-0.943,0.944h-3.779c-0.523,0-0.945-0.423-0.945-0.944V37.37z   M34.427,63.619H63.79c0.539,0,0.975,0.436,0.975,0.975c0,0.538-0.436,0.975-0.975,0.975H34.427c-0.538,0-0.975-0.437-0.975-0.975  C33.452,64.055,33.889,63.619,34.427,63.619z M34.427,68.568H63.79c0.539,0,0.975,0.437,0.975,0.975  c0,0.539-0.436,0.975-0.975,0.975H34.427c-0.538,0-0.975-0.436-0.975-0.975C33.452,69.005,33.889,68.568,34.427,68.568z   M34.427,73.518H63.79c0.539,0,0.975,0.438,0.975,0.975c0,0.539-0.436,0.976-0.975,0.976H34.427c-0.538,0-0.975-0.437-0.975-0.976  C33.452,73.955,33.889,73.518,34.427,73.518z M34.427,78.468H63.79c0.539,0,0.975,0.437,0.975,0.975s-0.436,0.976-0.975,0.976  H34.427c-0.538,0-0.975-0.438-0.975-0.976S33.889,78.468,34.427,78.468z"/>
<path fill="none" d="M45.643,8.366h6.934c0.578,0,1.047-0.471,1.047-1.049c0-0.577-0.469-1.048-1.047-1.048h-6.934  c-0.578,0-1.049,0.471-1.049,1.048C44.594,7.896,45.064,8.366,45.643,8.366z"/>
<path fill="#000000" d="M34.427,65.568H63.79c0.539,0,0.975-0.437,0.975-0.975c0-0.539-0.436-0.975-0.975-0.975H34.427  c-0.538,0-0.975,0.436-0.975,0.975C33.452,65.132,33.889,65.568,34.427,65.568z"/>
<path fill="#000000" d="M34.427,70.518H63.79c0.539,0,0.975-0.436,0.975-0.975c0-0.538-0.436-0.975-0.975-0.975H34.427  c-0.538,0-0.975,0.437-0.975,0.975C33.452,70.082,33.889,70.518,34.427,70.518z"/>
<path fill="#000000" d="M34.427,75.468H63.79c0.539,0,0.975-0.437,0.975-0.976c0-0.537-0.436-0.975-0.975-0.975H34.427  c-0.538,0-0.975,0.438-0.975,0.975C33.452,75.031,33.889,75.468,34.427,75.468z"/>
<path fill="#000000" d="M34.427,80.418H63.79c0.539,0,0.975-0.438,0.975-0.976s-0.436-0.975-0.975-0.975H34.427  c-0.538,0-0.975,0.437-0.975,0.975S33.889,80.418,34.427,80.418z"/>
<path fill="#000000" d="M69.824,2.749h-41.43c-3.725,0-6.74,3.018-6.74,6.74v81.52c0,3.724,3.016,6.738,6.74,6.738h41.43  c3.723,0,6.74-3.017,6.74-6.738V9.489C76.564,5.768,73.547,2.749,69.824,2.749z M45.643,6.27h6.934c0.578,0,1.047,0.471,1.047,1.048  c0,0.578-0.469,1.049-1.047,1.049h-6.934c-0.578,0-1.049-0.471-1.049-1.049C44.594,6.74,45.064,6.27,45.643,6.27z M49.107,94.678  c-1.654,0-2.998-1.345-2.998-3c0-1.654,1.344-2.996,2.998-2.996c1.656,0,3.002,1.342,3.002,2.996  C52.109,93.333,50.764,94.678,49.107,94.678z M70.945,85.609H27.27V11.888h43.676V85.609z"/>
<path fill="#000000" d="M37.551,48.928h3.779c0.521,0,0.943-0.423,0.943-0.944V37.37c0-0.521-0.422-0.945-0.943-0.945h-3.779  c-0.523,0-0.945,0.423-0.945,0.945v10.614C36.605,48.505,37.027,48.928,37.551,48.928z"/>
<path fill="#000000" d="M47.219,48.928h3.779c0.521,0,0.945-0.423,0.945-0.944V31.37c0-0.521-0.424-0.945-0.945-0.945h-3.779  c-0.521,0-0.945,0.423-0.945,0.945v16.614C46.273,48.505,46.697,48.928,47.219,48.928z"/>
<path fill="#000000" d="M56.889,48.928h3.779c0.521,0,0.943-0.423,0.943-0.944V25.37c0-0.521-0.422-0.945-0.943-0.945h-3.779  c-0.523,0-0.945,0.423-0.945,0.945v22.614C55.943,48.505,56.365,48.928,56.889,48.928z"/>
</svg>